HIERARCHY
ROOT hip
{
	OFFSET	0.00  0.00  0.00 
	CHANNELS 6 Xposition Yposition Zposition Xrotation Zrotation Yrotation
	JOINT abdomen
	{
		OFFSET	0.000000 0.000000 0.000000
		CHANNELS 3 Xrotation Zrotation Yrotation
		JOINT chest
		{
			OFFSET	0.000000 5.018152 -1.882228
			CHANNELS 3 Xrotation Zrotation Yrotation
			JOINT neckDummy
			{
				OFFSET	0.000000 8.316447 0.784897
				CHANNELS 3 Xrotation Yrotation Zrotation
				JOINT neck
				{
					OFFSET	0.000000 2.280413 -0.392801
					CHANNELS 3 Xrotation Zrotation Yrotation
					JOINT head
					{
						OFFSET	0.000000 3.496879 0.529469
						CHANNELS 3 Xrotation Zrotation Yrotation
						JOINT figureHair
						{
							OFFSET	0.000000 4.699570 0.720622
							CHANNELS 3 Zrotation Yrotation Xrotation
							End Site
							{
								OFFSET 0.000000 -6.419331 0.000000
							}
						}
					}
				}
			}
			JOINT lCollar
			{
				OFFSET	0.599237 8.316447 0.784897
				CHANNELS 3 Yrotation Zrotation Xrotation
				JOINT lShldr
				{
					OFFSET	6.421198 0.010146 -0.332128
					CHANNELS 3 Zrotation Yrotation Xrotation
					JOINT lForeArm
					{
						OFFSET	10.552783 0.025574 0.125508
						CHANNELS 3 Yrotation Zrotation Xrotation
						JOINT lHand
						{
							OFFSET	11.035963 0.319619 0.041520
							CHANNELS 3 Zrotation Yrotation Xrotation
							End Site
							{
								OFFSET 10.353753 0.000000 0.000000
							}
						}
					}
				}
			}
			JOINT rCollar
			{
				OFFSET	-0.599237 8.316447 0.784897
				CHANNELS 3 Yrotation Zrotation Xrotation
				JOINT rShldr
				{
					OFFSET	-6.421198 0.010146 -0.332128
					CHANNELS 3 Zrotation Yrotation Xrotation
					JOINT rForeArm
					{
						OFFSET	-10.552783 0.025574 0.125508
						CHANNELS 3 Yrotation Zrotation Xrotation
						JOINT rHand
						{
							OFFSET	-11.035963 0.319619 0.041520
							CHANNELS 3 Zrotation Yrotation Xrotation
							End Site
							{
								OFFSET -10.353753 0.000000 0.000000
							}
						}
					}
				}
			}
		}
	}
	JOINT lThigh
	{
		OFFSET	4.500466 -6.400484 -1.832696
		CHANNELS 3 Xrotation Zrotation Yrotation
		JOINT lShin
		{
			OFFSET	-1.359117 -18.918689 1.179887
			CHANNELS 3 Xrotation Zrotation Yrotation
			JOINT lFoot
			{
				OFFSET	-0.652380 -17.215186 -0.312137
				CHANNELS 3 Xrotation Yrotation Zrotation
				End Site
				{
					OFFSET 0.000000 0.000000 10.353752
				}
			}
		}
	}
	JOINT rThigh
	{
		OFFSET	-4.500466 -6.400484 -1.832696
		CHANNELS 3 Xrotation Zrotation Yrotation
		JOINT rShin
		{
			OFFSET	1.359117 -18.918689 1.179887
			CHANNELS 3 Xrotation Zrotation Yrotation
			JOINT rFoot
			{
				OFFSET	0.652380 -17.215186 -0.312137
				CHANNELS 3 Xrotation Yrotation Zrotation
				End Site
				{
					OFFSET 0.000000 0.000000 10.353752
				}
			}
		}
	}
}
MOTION
Frames:     10
Frame Time: 0.066667
-21.139984 34.689995 2.950001 162.529007 -171.024994 4.646910 25.771500 -18.486300 7.802740 0.000000 0.000000 0.000000 0.000000 0.000000 0.000000 -22.002001 -0.566406 15.361300 0.000000 0.000000 0.000000 0.000000 0.000000 0.000000 0.000000 0.000000 0.000000 -61.099201 -29.412800 42.136101 -107.240997 52.625702 34.435200 5.270760 12.270900 -62.826000 0.000000 0.000000 0.000000 71.063004 24.487600 40.933601 128.175003 -46.416500 80.954399 -50.100601 1.572580 -11.847900 -54.895508 2.340283 26.079464 68.551743 -5.639405 4.384057 -18.281017 6.193183 5.762010 -36.191483 -7.119604 -34.457092 88.105400 10.310985 4.647247 -0.714061 -4.148091 2.855067 
-22.409975 32.959995 3.150004 163.358994 -167.167999 7.341580 24.882799 -26.943399 10.078100 0.000000 0.000000 0.000000 0.000000 0.000000 0.000000 -30.683599 -3.593750 12.412100 0.000000 0.000000 0.000000 0.000000 0.000000 0.000000 0.000000 0.000000 0.000000 -84.876701 -43.151501 72.591202 -114.459999 51.911098 35.473400 2.279380 11.965700 -50.632301 0.000000 0.000000 0.000000 81.714699 40.752998 74.354301 112.799004 -53.720798 64.559700 -47.518200 0.924910 -10.988200 -56.844189 -3.457593 27.761648 74.429146 -7.114811 3.374067 -26.105587 8.019024 9.556857 -28.275949 6.836061 -23.267288 72.616096 5.292494 -0.087620 -10.128119 -8.206065 -26.870621 
-23.609976 33.049999 3.080003 164.755997 -167.285004 6.501760 23.037100 -27.128901 11.962900 0.000000 0.000000 0.000000 0.000000 0.000000 0.000000 -30.605499 -3.408200 9.315830 0.000000 0.000000 0.000000 0.000000 0.000000 0.000000 0.000000 0.000000 0.000000 -79.005402 -41.709000 70.209999 -107.649002 51.377998 32.258301 7.977920 10.515800 -44.944199 0.000000 0.000000 0.000000 70.110497 46.773998 76.421501 89.339203 -49.682499 46.338699 -51.221500 2.771790 -12.758900 -57.202755 -5.899592 26.400459 75.943497 -7.749625 4.985909 -26.846186 7.933547 9.962520 -19.918709 9.949964 -18.590977 62.599941 -3.209691 -1.352304 -34.959755 -0.971874 -46.926395 
-22.830027 35.439999 1.810001 167.520004 -169.501999 2.088060 22.695299 -24.091801 16.216700 0.000000 0.000000 0.000000 0.000000 0.000000 0.000000 -28.330099 -0.527344 5.546870 0.000000 0.000000 0.000000 0.000000 0.000000 0.000000 0.000000 0.000000 0.000000 -56.196201 -34.347099 60.742699 -102.021004 51.422699 32.886700 13.014600 8.711660 -35.612202 0.000000 0.000000 0.000000 63.317699 45.808300 70.926003 46.980499 -40.175701 19.448400 -32.909801 -4.814920 -18.740101 -54.326614 -7.255109 17.832491 72.166451 -3.632716 4.235215 -14.501916 3.553543 2.863777 -17.849855 3.633056 -21.900660 64.627228 0.341792 -0.953140 -6.426558 -3.159433 -28.165642 
-20.079966 36.459999 2.629997 171.084000 -170.595993 0.457389 23.906300 -16.289101 20.341801 0.000000 0.000000 0.000000 0.000000 0.000000 0.000000 -25.820299 7.519530 1.651670 0.000000 0.000000 0.000000 0.000000 0.000000 0.000000 0.000000 0.000000 0.000000 -49.253101 -37.838299 46.197399 -132.779999 44.115799 51.499901 30.994801 2.291800 -29.191000 0.000000 0.000000 0.000000 51.733002 30.543100 43.679401 35.693298 -42.494499 -3.779020 -10.491100 -20.348900 -58.358898 -50.206379 -15.378241 -0.122402 66.668129 2.871051 -1.597848 -11.985140 -2.435788 -5.568024 -30.477793 -15.751420 -17.681437 91.870201 5.868795 2.719144 22.117243 -10.002291 -5.715540 
-20.770044 36.019997 2.840003 174.667999 -174.589996 2.440490 21.542999 3.837890 13.418000 0.000000 0.000000 0.000000 0.000000 0.000000 0.000000 -17.441401 19.296900 3.671870 0.000000 0.000000 0.000000 0.000000 0.000000 0.000000 0.000000 0.000000 0.000000 -44.313301 -26.984800 24.194099 -122.012001 46.643902 42.522099 37.065498 9.982900 -43.053101 0.000000 0.000000 0.000000 32.605000 17.621799 18.123600 91.722397 -57.480499 40.467602 -33.220200 -22.198700 -58.911301 -44.644386 -15.281831 -3.824102 66.278648 5.312537 -2.522030 -20.621859 -8.124779 -6.655240 -45.809494 -28.964127 -5.281586 115.954689 3.789112 5.513660 28.462708 -6.528248 1.345348 
-20.860018 37.310001 0.910000 175.302994 179.473007 0.185637 17.978500 21.630899 1.621090 0.000000 0.000000 0.000000 0.000000 0.000000 0.000000 -11.386700 23.349600 0.117187 0.000000 0.000000 0.000000 0.000000 0.000000 0.000000 0.000000 0.000000 0.000000 -45.634102 -9.124310 27.760000 -89.049400 54.446201 11.839100 3.494230 31.674101 -83.711899 0.000000 0.000000 0.000000 14.558400 19.383301 -13.739200 141.447006 -42.743301 79.511902 -55.237999 -12.323200 -30.173201 -37.319836 -6.962852 1.337633 60.600525 9.402626 -9.451280 -20.821953 -6.956765 -4.668096 -51.749729 -28.706226 -1.999225 115.598824 2.362786 1.670496 19.192312 -8.556042 -1.332984 
-20.339949 40.899998 -1.119998 -6.005860 -0.429688 164.414001 17.441401 14.560500 2.529300 0.000000 0.000000 0.000000 0.000000 0.000000 0.000000 -8.779300 9.316410 -6.328130 0.000000 0.000000 0.000000 0.000000 0.000000 0.000000 0.000000 0.000000 0.000000 -43.275398 -19.514099 26.445601 -113.561996 58.392601 33.177700 5.966530 29.944300 -77.925201 0.000000 0.000000 0.000000 18.762300 10.080300 -15.321500 133.559998 -49.546200 73.458199 -36.717098 -16.364100 -35.952900 -24.681171 -2.616862 3.915005 42.062428 5.323382 -6.295683 -15.038529 -2.202821 -6.042363 -42.184929 -21.121304 -10.864309 83.208221 -0.556902 -2.506937 8.710159 -14.084441 -3.091656 
-20.070028 44.179996 1.669997 -0.683594 -1.679690 136.425003 14.980500 -3.388670 8.485750 0.000000 0.000000 0.000000 0.000000 0.000000 0.000000 -9.150390 -4.443360 -3.506620 0.000000 0.000000 0.000000 0.000000 0.000000 0.000000 0.000000 0.000000 0.000000 -34.133400 -45.782101 15.520700 -137.511002 47.595299 57.654701 27.754700 17.081800 -49.114399 0.000000 0.000000 0.000000 26.414000 5.155780 12.701100 114.641998 -60.945099 60.130501 -3.486440 -31.528099 -67.900497 -10.195244 -1.622445 10.961042 24.100592 2.759381 -4.117918 -5.886667 0.777099 -8.016747 -22.263594 -10.408740 -15.790762 33.954292 -3.968980 -2.891894 9.997174 -9.258515 5.108826 
-20.380018 43.229996 2.300002 -3.085940 -0.263672 112.978996 15.673800 0.820313 9.345700 0.000000 0.000000 0.000000 0.000000 0.000000 0.000000 -7.841800 7.900390 -2.871090 0.000000 0.000000 0.000000 0.000000 0.000000 0.000000 0.000000 0.000000 0.000000 -43.329201 -40.713001 12.594800 -120.749001 55.498798 41.237598 19.489500 30.892099 -63.565498 0.000000 0.000000 0.000000 18.136400 12.574700 0.410848 -34.709202 -138.216003 -94.816498 -35.080700 -24.853100 -43.835400 -12.695296 -0.273647 0.854350 27.735565 3.989853 -10.933442 -2.962188 -4.749504 -5.786641 -20.719315 -4.286212 -8.479496 22.724089 -2.968694 -2.001302 15.296296 3.930097 12.147165 
